<?xml version="1.0" encoding="iso-8859-1"?>
<!-- Generator: Adobe Illustrator 19.0.0, SVG Export Plug-In . SVG Version: 6.00 Build 0)  -->
<svg version="1.1" id="Layer_1" xmlns="http://www.w3.org/2000/svg" xmlns:xlink="http://www.w3.org/1999/xlink" x="0px" y="0px"
	 viewBox="0 0 512 512" style="enable-background:new 0 0 512 512;" xml:space="preserve">
<polygon style="fill:#64C37D;" points="500.852,7.984 11.148,7.984 11.148,402.409 186.803,402.857 255.02,498.668 330.52,402.409 
	500.852,402.409 "/>
<path style="fill:#40A559;" d="M11.148,354.204v48.205l175.655,0.448l68.217,95.812l75.501-96.26h170.332V80.553
	C431.282,239.737,238.316,354.204,11.148,354.204z"/>
<g>
	<rect x="223.528" y="177.251" style="fill:#FFFFFF;" width="63.874" height="153.299"/>
	<rect x="154.863" y="194.817" style="fill:#FFFFFF;" width="15.969" height="15.969"/>
	<rect x="343.293" y="194.817" style="fill:#FFFFFF;" width="15.969" height="15.969"/>
	<circle style="fill:#FFFFFF;" cx="255.466" cy="113.377" r="31.937"/>
</g>
<path d="M254.709,512l-72.03-101.17L3.164,410.373V0h505.672v410.393h-174.43L254.709,512z M19.133,394.445l171.794,0.439
	l64.401,90.454l71.306-90.912h166.232V15.969H19.131v378.476H19.133z"/>
<polygon points="116.541,365.681 44.682,365.681 44.682,293.822 60.651,293.822 60.651,349.712 116.541,349.712 "/>
<polygon points="466.253,365.681 394.395,365.681 394.395,349.712 450.285,349.712 450.285,293.822 466.253,293.822 "/>
<polygon points="60.651,114.974 44.682,114.974 44.682,43.115 116.541,43.115 116.541,59.084 60.651,59.084 "/>
<polygon points="466.253,114.974 450.285,114.974 450.285,59.084 394.395,59.084 394.395,43.115 466.253,43.115 "/>
<path d="M295.389,338.534h-79.843V169.267h79.843V338.534z M231.515,322.566h47.906v-137.33h-47.906L231.515,322.566
	L231.515,322.566z"/>
<path d="M255.468,153.299c-22.013,0-39.921-17.908-39.921-39.921s17.908-39.921,39.921-39.921s39.921,17.908,39.921,39.921
	S277.481,153.299,255.468,153.299z M255.468,89.424c-13.207,0-23.953,10.745-23.953,23.953s10.746,23.953,23.953,23.953
	c13.207,0,23.953-10.745,23.953-23.953S268.675,89.424,255.468,89.424z"/>
<g>
</g>
<g>
</g>
<g>
</g>
<g>
</g>
<g>
</g>
<g>
</g>
<g>
</g>
<g>
</g>
<g>
</g>
<g>
</g>
<g>
</g>
<g>
</g>
<g>
</g>
<g>
</g>
<g>
</g>
</svg>
